<?xml version="1.0" encoding="utf-8"?><!-- Generator: Adobe Illustrator 21.0.2, SVG Export Plug-In . SVG Version: 6.00 Build 0)  -->
<svg enable-background="new 0 0 5210 690" id="Слой_1" version="1.1"  viewBox="0 0 5210 690" x="0px"
	 xmlns="http://www.w3.org/2000/svg" y="0px" xml:space="preserve">
<g>
	<path d="M2355.1,409.9c0-7.1-8.5-27.6-25.4-61.4c-13-26-24.7-53.6-35.1-82.9l-16.6,54.6
		l23.4,55.6c12.4,26.7,21.8,46.2,28.3,58.5c-22.1,1.3-37.4-1.3-45.8-7.8c-10.4-7.8-17.9-18.2-22.4-31.2l-9.8-38
		c-9.8-31.9-16.6-57.2-20.5-76.1l-15.6,56.6c7.1,21.5,12,41.6,14.6,60.5c3.2,22.8,2.3,37.4-2.9,43.9c-12.4,15-27,22.4-43.9,22.4
		c-15.6,0-26.7-8.8-33.2-26.3c-3.2-8.5-5.5-24.1-6.8-46.8c-4.6-31.2-8.5-55.3-11.7-72.2l-22.4,38l4.9,21.5
		c-48.8,24.7-78.3,44.2-88.8,58.5c-12.4,16.9-19.5,34.1-21.5,51.7c9.1,7.1,15.9,10.4,20.5,9.8c10.4,3.2,23.4,3.9,39,2
		c13-2,23.4-5.5,31.2-10.7c15.6-13.7,24.7-23.1,27.3-28.3c1.3,11.1,3.9,20.5,7.8,28.3c8.5,18.2,22.4,27.3,41.9,27.3
		c38.4,0,63.4-19.8,75.1-59.5c11.1,13,24.4,22.4,40,28.3c19.5,7.1,35.4,9.1,47.8,5.9C2348.3,472.9,2355.1,445.6,2355.1,409.9
		L2355.1,409.9z" stroke="#000000" stroke-miterlimit="10"/>
	<path d="M1588.5,29.5c-13-14.3-33.8-21.1-62.4-20.5c-17.6,0-30.9,5.2-40,15.6
		c-5.2,5.2-9.4,13.3-12.7,24.4c3.9,0,8.1-1.3,12.7-3.9c3.9-2,6.8-2.9,8.8-2.9c8.5-1.3,18.2-1.3,29.3,0c11.1,1.3,16.9,2.9,17.6,4.9
		c0,3.2-7.1,9.1-21.5,17.6c-14.3,7.8-21.5,12.7-21.5,14.6c15.6,0.7,27.6-0.3,36.1-2.9C1558.9,69.2,1576.8,53.6,1588.5,29.5
		L1588.5,29.5z" stroke="#000000" stroke-miterlimit="10"/>
	<path d="M1311.5,83.1c5.2-13,7.8-23.4,7.8-31.2c0-7.1-2.6-12.7-7.8-16.6
		c-5.2-3.2-10.4-4.9-15.6-4.9c-16.9,0-32.8,14-47.8,41.9c-4.6,2-9.8,1.6-15.6-1c-5.2-2-9.8-2.6-13.7-2c-9.1,1.3-17.9,8.1-26.3,20.5
		c-6.5,10.4-10.1,18.9-10.7,25.4l14.6-10.7c8.5-6.5,16.9-9.4,25.4-8.8c0.7,0,3.6,2,8.8,5.9c4.6,3.2,10.4,5.2,17.6,5.9h8.8
		c15.6,0,29.3-4.2,41-12.7C1307.6,87.7,1312.2,83.8,1311.5,83.1L1311.5,83.1z" stroke="#000000" stroke-miterlimit="10"/>
	<path d="M1447.1,287c0-10.4-4.6-26-13.7-46.8c-9.1-20.2-17.9-32.2-26.3-36.1l-13.7,31.2
		c11.1,17.6,18.9,31.5,23.4,41.9c9.1,24.1,15,41.6,17.6,52.7C1442.9,322.1,1447.1,307.8,1447.1,287L1447.1,287z" stroke="#000000" stroke-miterlimit="10"/>
	<polygon points="1301.8,268.5 1279.3,305.5 1316.4,331.8 1340.8,294.8 	" stroke="#000000" stroke-miterlimit="10"/>
	<path d="M1268.6,404c0-3.9-1.3-13-3.9-27.3l-43.9-230.2l-21.5,74.1l31.2,158
		c7.8,42.3,11.7,73.5,11.7,93.6C1259.8,454.1,1268.6,431.3,1268.6,404L1268.6,404z" stroke="#000000" stroke-miterlimit="10"/>
	<path d="M1047.2,231.4c-0.7-10.4-1.3-16.3-2-17.6c-5.9-7.1-10.4-13.3-13.7-18.5
		c-1.3,0-3.2,3.6-5.9,10.7c-2.6,6.5-4.2,10.1-4.9,10.7c5.9,15,7.5,23.7,4.9,26.3c-2.6,2.6-6.8,3.2-12.7,2c-5.2-1.3-9.1-3.9-11.7-7.8
		c-2-2.6-4.2-8.1-6.8-16.6c-2-7.8-3.2-11.7-3.9-11.7c-0.7,1.3-2,3.6-3.9,6.8c-2,1.3-2.6,4.2-2,8.8c1.3,18.9-2.6,28.3-11.7,28.3
		c-11.7,0-18.9-4.6-21.5-13.7l-1-8.8c-0.7-5.2-2.6-7.8-5.9-7.8c-2.6,0-4.6,5.5-5.9,16.6s-1,19.2,1,24.4
		c7.1,14.3,16.6,21.1,28.3,20.5c9.1,0,15.6-2.6,19.5-7.8l7.8-12.7c5.2,5.9,12.4,8.8,21.5,8.8c9.1,0,16.6-5.2,22.4-15.6
		C1044.6,248.3,1047.2,239.8,1047.2,231.4L1047.2,231.4z" stroke="#000000" stroke-miterlimit="10"/>
	<path d="M1143.8,212.9l9.8-2c6.5-20.8,9.8-31.5,9.8-32.2l-15.6-9.8
		c-7.1-3.9-12-8.5-14.6-13.7c-5.9-18.2-8.5-31.5-7.8-40c-18.9,2-28.9,16.9-30.2,44.9c-0.7,20.2,2.9,31.5,10.7,34.1l30.2,181.4
		c2.6,16.9,2.6,26.7,0,29.3c-8.5,9.1-22.8,13.7-42.9,13.7c-18.2,0-28.9-6.2-32.2-18.5c-0.7-1.3-1.3-2-2-2c-5.2,0-9.1,8.8-11.7,26.3
		l-1,7.8c0,15,7.1,27,21.5,36.1c-20.2,29.9-42.3,51.4-66.3,64.4c-19.5,9.8-41,15.3-64.4,16.6c-11.7,0.7-32.2-1.6-61.4-6.8
		c4.6,7.8,15,15.9,31.2,24.4c18.2,8.5,35.4,13.3,51.7,14.6c15.6,0.7,28.9-0.3,40-2.9c20.2-5.9,39-17.9,56.6-36.1
		c19.5-20.2,33.2-45.5,41-76.1c22.8-1.3,39.7-8.1,50.7-20.5c7.1-8.5,12.4-20.2,15.6-35.1c2-9.1,3.6-22.1,4.9-39L1143.8,212.9z" stroke="#000000" stroke-miterlimit="10"/>
	<path d="M1029.7,12.9c-27.3,13.7-79.3,34.5-156,62.4C761.1,117,597.9,182.9,384,273.3
		c-4.6,3.2-12,12.7-22.4,28.3c-10.4,15-15.6,24.1-15.6,27.3c0,0.7,0.7,1,2,1L986.8,69.5L1029.7,12.9z" stroke="#000000" stroke-miterlimit="10"/>
	<path d="M1778.7,327c-24.7-0.7-67.3-12.7-127.8-36.1l-61.4-26.3
		c-15.6-6.5-27.3-9.8-35.1-9.8c-24.1,0-45.2,8.8-63.4,26.3c0,2-2,6.5-5.9,13.7c-3.9,7.1-5.9,13.7-5.9,19.5c0,2,0.3,3.6,1,4.9
		c8.5-4.6,21.5-6.8,39-6.8c26.7,0,52.7,4.6,78,13.7c-27.3,5.2-48.1,10.7-62.4,16.6c-18.9,7.1-33.2,14-42.9,20.5
		c-7.1,5.2-14.6,16.6-22.4,34.1c-7.1,15.6-16.3,24.7-27.3,27.3c-18.2,5.2-30.6,5.2-37.1,0c-9.8-14.3-18.9-25-27.3-32.2l-16.6,51.7
		c13,10.4,20.5,22.1,22.4,35.1c0.7,7.1-0.3,13.3-2.9,18.5c-18.9,35.8-83.2,68.6-193.1,98.5c-101.4,28.6-192.8,42.6-274.1,41.9
		c-65-0.7-137.5-11.7-217.5-33.2C603.8,580.2,539.4,549,503,511.3c29.3,0,63.1-3.9,101.4-11.7c42.9-8.5,72.8-17.9,89.7-28.3
		c9.1,3.9,15.9,6.2,20.5,6.8c11.7,3.2,18.9,4.9,21.5,4.9c12.4,0,24.1-2,35.1-5.9l41-17.6c55.3-22.1,85.2-33.2,89.7-33.2
		c39.7-0.7,70.5-1,92.7-1l26.3-44.9c-56.6,0-103.1-6.8-139.5-20.5c-13-4.6-36.4-15.6-70.2-33.2c-22.8-11.7-39.3-17.6-49.7-17.6
		c-28,0-51.7,21.5-71.2,64.4c-7.1-1.3,4.6-2,35.1-2H740c20.8,0.7,41.9,5.2,63.4,13.7c12.4,4.6,27.3,11.7,44.9,21.5
		c-15,7.1-30.2,14-45.8,20.5c-18.2,7.8-35.4,11.4-51.7,10.7c-18.9,0-30.2-1.6-34.1-4.9c3.2-9.8,3.9-17.2,2-22.4
		c-34.5,20.8-62.1,34.5-82.9,41c-33.2,11.1-85.2,16.3-156,15.6c-44.9-0.7-82.6-8.1-113.1-22.4c-26-11.7-50.4-30.9-73.1-57.5
		c-20.2,4.6-34.8,16.3-43.9,35.1c-9.8,20.8-14.3,38.4-13.7,52.7c0,10.4,2.3,19.2,6.8,26.3c-3.2,8.5-24.7,22.4-64.4,41.9
		c-32.5,16.9-55.9,28-70.2,33.2c36.4,2.6,63.1,2.6,80,0c22.1-3.9,41-12.7,56.6-26.3c13.7-18.2,23.1-32.2,28.3-41.9
		c29.3,9.8,50.7,14.6,64.4,14.6c3.2,0,6.2-0.3,8.8-1c11.7-11.7,18.5-20.8,20.5-27.3c21.5,9.1,54.9,14.6,100.5,16.6
		c20.2,25.4,41.9,45.8,65.3,61.4c13,8.5,39.7,22.4,80,41.9c90.4,44.9,196.7,67,318.9,66.3c76.1-0.7,145.6-8.5,208.7-23.4
		c83.9-20.2,147.3-43.6,190.2-70.2c41.6-26,67.3-52,77-78c4.6-11.1,7.5-22.1,8.8-33.2c15.6,0.7,26.7-2.3,33.2-8.8
		c5.9-5.9,10.4-13.7,13.7-23.4c6.5,5.2,16.9,11.1,31.2,17.6c14.3,5.9,25.4,8.8,33.2,8.8c10.4,0,20.5-8.5,30.2-25.4
		c3.9-7.1,5.9-15.6,5.9-25.4c0-20.2-5.9-35.4-17.6-45.8c31.9-10.4,77.4-15.6,136.5-15.6c3.2,0,14,1.3,32.2,3.9
		c20.8,2,35.4,3.2,43.9,3.9L1778.7,327L1778.7,327z" stroke="#000000" stroke-miterlimit="10"/>
	<path d="M770.2,502.5L740,532.8c-13-8.5-23.1-15.3-30.2-20.5l-30.2,30.2l40,33.2
		l28.3-29.3l32.2,22.4l35.1-37.1L770.2,502.5z" stroke="#000000" stroke-miterlimit="10"/>
	<path d="M410.4,543.5c-69.6,33.8-114.4,54.3-134.6,61.4l-27.3,31.2
		c40.3-5.2,88.4-26.3,144.3-63.4C403.8,560.4,409.7,550.6,410.4,543.5L410.4,543.5z" stroke="#000000" stroke-miterlimit="10"/>
	<path d="M2116.2,411.8c1.3,9.1,2.3,17.6,2.9,25.4
		c-9.8,13.7-30.9,19.2-63.4,16.6C2066.1,435.6,2086.3,421.6,2116.2,411.8L2116.2,411.8z" fill="#FCFAFA" stroke="#000000" stroke-miterlimit="10"/>
	<path d="M1534.9,420.6c-3.2,0-9.8-1.6-19.5-4.9
		c-11.7-3.2-18.5-6.8-20.5-10.7c0-5.9,5.5-9.1,16.6-9.8C1520.6,394.6,1528.4,403,1534.9,420.6L1534.9,420.6z" fill="#FFFFFF" stroke="#000000" stroke-miterlimit="10"/>
	<path d="M321.6,464.5c-15,2-33.2-1.6-54.6-10.7
		c5.9-11.7,10.4-19.8,13.7-24.4C296.9,447.6,310.5,459.3,321.6,464.5L321.6,464.5z" fill="#FFFFFF" stroke="#000000" stroke-miterlimit="10"/>
	<path d="M1964,404c0-3.9-1.3-13-3.9-27.3l-43.9-230.2l-21.5,74.1l30.2,158
		c8.5,42.3,12.7,73.5,12.7,93.6C1955.2,454.1,1964,431.3,1964,404L1964,404z" stroke="#000000" stroke-miterlimit="10"/>
	<path d="M1853.8,375.7l-14.6-80c-10.4-53.3-15.9-81-16.6-82.9l9.8-2
		c7.1-20.8,10.7-31.5,10.7-32.2l-15.6-9.8c-7.8-3.9-13-8.5-15.6-13.7c-5.9-18.2-8.5-31.5-7.8-40c-18.2,2-28.3,16.9-30.2,44.9
		c-0.7,20.2,2.9,31.5,10.7,34.1l41,204.8c3.2,16.3,3.2,26,0,29.3c-8.5,9.1-22.8,13.7-42.9,13.7c-17.6,0-28.3-6.2-32.2-18.5
		c-0.7-1.3-1.3-2.3-2-2.9c-5.2,0-9.1,9.1-11.7,27.3l-1,6.8c0,15.6,7.1,27.6,21.5,36.1c-16.9,40.3-39.3,67.3-67.3,81
		c-18.9,9.8-40,15.3-63.4,16.6c-13,0.7-27-3.6-41.9-12.7c-8.5-5.2-16.3-13.3-23.4-24.4c-2-2.6-6.5-10.7-13.7-24.4
		c0,15.6,1.6,27.6,4.9,36.1c7.1,11.1,13,18.9,17.6,23.4c18.9,20.8,44.9,32.2,78,34.1c15.6,1.3,28.9,0.3,40-2.9
		c20.2-5.9,38.7-17.6,55.6-35.1c11.7-11.7,21.8-29.3,30.2-52.7c7.1-18.2,11.1-31.9,11.7-41c22.8-1.3,39.7-7.8,50.7-19.5
		c7.1-8.5,12.4-20.5,15.6-36.1c2-8.5,3.6-21.1,4.9-38L1853.8,375.7z" stroke="#000000" stroke-miterlimit="10"/>
	<path d="M2435.1,404c0-3.9-1.3-13-3.9-27.3l-43.9-230.2l-21.5,74.1l31.2,158
		c7.8,42.3,11.7,73.5,11.7,93.6C2426.3,454.1,2435.1,431.3,2435.1,404L2435.1,404z" stroke="#000000" stroke-miterlimit="10"/>
	<path d="M1000.4,445c-69.6,33.8-114.8,54-135.6,60.5l-26.3,32.2
		c40.3-5.9,88.4-27.3,144.3-64.4C993.3,460.9,999.1,451.5,1000.4,445L1000.4,445z" stroke="#000000" stroke-miterlimit="10"/>
	<path d="M1460.8,585.4c-70.2,33.8-115.4,54-135.6,60.5l-26.3,32.2
		c39.7-5.9,87.5-27.3,143.4-64.4C1453.3,602,1459.5,592.6,1460.8,585.4L1460.8,585.4z" stroke="#000000" stroke-miterlimit="10"/>
	<path d="M1752.4,17.8c-69.6,33.8-114.4,54.3-134.6,61.4l-26.3,31.2
		c40.3-5.2,88.1-26.3,143.4-63.4C1745.9,34.7,1751.7,24.9,1752.4,17.8L1752.4,17.8z" stroke="#000000" stroke-miterlimit="10"/>
	<path d="M1474.4,80.2c-64.4,31.2-102.4,48.8-114.1,52.7l-26.3,32.2
		c46.2-13,87.1-31.5,122.9-55.6C1467.9,97.1,1473.8,87.4,1474.4,80.2L1474.4,80.2z" stroke="#000000" stroke-miterlimit="10"/>
	<path d="M2255.6,73.4c-68.9,33.8-113.8,54-134.6,60.5l-26.3,32.2
		c40.3-5.9,88.1-27.3,143.4-64.4C2249.1,89.3,2255,79.9,2255.6,73.4L2255.6,73.4z" stroke="#000000" stroke-miterlimit="10"/>
	<path d="M2110.3,540.6c-70.2,33.8-115.4,54-135.6,60.5l-26.3,32.2
		c40.3-5.2,88.1-26.7,143.4-64.4C2102.8,557.1,2109,547.7,2110.3,540.6L2110.3,540.6z" stroke="#000000" stroke-miterlimit="10"/>
	<path d="M2635,587.4c-22.1,11.1-61.4,26-118,44.9l-27.3,32.2
		c55.3-13,97.9-28.9,127.8-47.8C2628.5,604.3,2634.4,594.5,2635,587.4L2635,587.4z" stroke="#000000" stroke-miterlimit="10"/>
	<path d="M1264.7,77.3c7.1,0.7,14.6-0.7,22.4-3.9
		c7.1-2.6,10.7-5.9,10.7-9.8s-3.2-5.9-9.8-5.9C1281.6,57.8,1273.8,64.3,1264.7,77.3L1264.7,77.3z" fill="#FFFFFF" stroke="#000000" stroke-miterlimit="10"/>
	<path d="M1989.4,74.4c4.6-12.4,6.8-22.4,6.8-30.2c0-7.1-2.6-12.7-7.8-16.6
		c-4.6-3.2-9.4-4.9-14.6-4.9c-16.9,0-32.8,14-47.8,41.9c-4.6,2-9.8,1.6-15.6-1c-5.2-2.6-9.8-3.6-13.7-2.9c-9.8,2-18.5,9.1-26.3,21.5
		c-7.1,10.4-11.1,18.9-11.7,25.4l15.6-10.7c8.5-6.5,16.6-9.8,24.4-9.8c0.7,0,3.6,2,8.8,5.9c5.2,3.9,11.4,6.2,18.5,6.8h7.8
		c16.3,0,30.2-4.6,41.9-13.7C1985.5,79.6,1990,75.7,1989.4,74.4L1989.4,74.4z" stroke="#000000" stroke-miterlimit="10"/>
	<path d="M1941.6,69.5c7.8,0.7,15.3-0.7,22.4-3.9
		c7.1-2.6,10.7-5.9,10.7-9.8s-3.2-5.9-9.8-5.9C1958.5,50,1950.7,56.5,1941.6,69.5L1941.6,69.5z" fill="#FFFFFF" stroke="#000000" stroke-miterlimit="10"/>
	<path d="M1729.9,167c0-10.4-0.3-16.3-1-17.6c-6.5-7.8-11.1-14-13.7-18.5
		c-1.3,0-3.6,3.6-6.8,10.7c-2.6,6.5-4.2,10.1-4.9,10.7c5.9,15,7.8,23.4,5.9,25.4c-2.6,3.2-6.8,4.2-12.7,2.9
		c-5.2-1.3-9.1-3.6-11.7-6.8c-2-3.2-4.2-9.4-6.8-18.5c-2-7.1-3.6-10.7-4.9-10.7c0,1.3-1,3.2-2.9,5.9c-2,2-2.6,5.2-2,9.8
		c1.3,18.9-2.9,28.3-12.7,28.3c-11.7,0-18.9-4.6-21.5-13.7l-1-9.8c-0.7-4.6-2.3-6.8-4.9-6.8c-2.6,0-4.9,5.5-6.8,16.6
		c-1.3,11.1-1,18.9,1,23.4c7.1,15,16.6,22.1,28.3,21.5c9.8-0.7,16.6-3.2,20.5-7.8l7.8-13.7c4.6,5.9,11.4,8.8,20.5,8.8
		s16.9-4.9,23.4-14.6C1728.3,183.3,1730.6,174.8,1729.9,167L1729.9,167z" stroke="#000000" stroke-miterlimit="10"/>
	<path d="M2252.7,204.1c0-10.4-0.3-16.3-1-17.6c-6.5-7.1-11.1-13.3-13.7-18.5
		c-2,0-4.2,3.6-6.8,10.7c-2.6,6.5-4.2,10.1-4.9,10.7c5.9,15,7.5,23.7,4.9,26.3c-2,2.6-5.9,3.2-11.7,2c-5.9-0.7-10.1-2.6-12.7-5.9
		c-2-3.2-3.9-9.1-5.9-17.6s-3.6-12.7-4.9-12.7c0,1.3-1.3,3.2-3.9,5.9c-2,2.6-2.6,5.9-2,9.8c2,18.9-2,28.3-11.7,28.3
		c-11.7,0-18.9-4.6-21.5-13.7l-1-8.8c-0.7-5.2-2.6-7.8-5.9-7.8c-2.6,0-4.6,5.5-5.9,16.6c-1.3,11.1-1,19.2,1,24.4
		c7.1,14.3,16.6,21.1,28.3,20.5c9.1,0,15.9-2.3,20.5-6.8l7.8-13.7c4.6,5.9,11.4,8.8,20.5,8.8s16.6-5.2,22.4-15.6
		C2250.8,221,2253.4,212.5,2252.7,204.1L2252.7,204.1z" stroke="#000000" stroke-miterlimit="10"/>
	<path d="M2608.7,521.1c16.9,10.4,52,20.5,105.3,30.2c14.3,2.6,65.3,10.4,153.1,23.4
		c65,9.8,130.7,16.3,197,19.5l199,6.8c106.6,4.6,197,6.5,271.1,5.9c193.1-1.3,422.3-18.2,687.6-50.7c218.5-26.7,390.1-58.5,515-95.6
		c31.2-9.1,61.8-19.5,91.7-31.2c15.6,17.6,35.4,26.3,59.5,26.3c29.3,0,50.1-9.1,62.4-27.3c8.5,11.7,20.5,16.9,36.1,15.6
		c22.8-2,37.7-12.7,44.9-32.2c21.5,11.7,40.3,17.6,56.6,17.6c38.4,0,57.5-28.6,57.5-85.8c0-28.6-8.5-59.5-25.4-92.7
		c-20.2-35.8-44.2-62.1-72.2-79c-11.1,11.7-16.6,28-16.6,48.8c0.7,17.6,6.2,33.5,16.6,47.8c3.9,5.2,8.5,8.5,13.7,9.8
		c8.5,2,15.6,3.2,21.5,3.9c11.1,18.2,19.2,31.9,24.4,41c9.1,15,13.3,27.3,12.7,37.1c-1.3,16.3-11.7,22.8-31.2,19.5
		c-19.5-2.6-31.9-6.5-37.1-11.7c-2-2-2.3-7.5-1-16.6c0.7-7.1-1-11.1-4.9-11.7c-3.2-0.7-8.5,8.5-15.6,27.3
		c-7.1,18.2-20.5,26.7-40,25.4c-4.6-1.3-6.5-4.2-5.9-8.8c0-4.6,0-8.8,0-12.7c-0.7-12.4-3.2-18.9-7.8-19.5
		c-14.3,35.1-40.6,52.7-79,52.7c-11.7,0-22.4-2.9-32.2-8.8c-3.9-4.6-6.8-8.5-8.8-11.7c3.2-11.7,4.6-19.5,3.9-23.4
		c0-3.2-1.3-6.2-3.9-8.8c-22.1,21.5-57.5,39.7-106.3,54.6c-132,41.6-312.4,75.8-541.3,102.4c-262.7,31.2-490.3,46.8-682.7,46.8
		c-78,0-166.8-2.3-266.3-6.8l-237-9.8c-78-5.2-156-14.3-234.1-27.3c-60.5-10.4-96.9-17.6-109.2-21.5c-41-11.7-70.5-22.8-88.8-33.2
		c-24.1-13-42.9-27.6-56.6-43.9c-19.5,4.6-33.8,16.3-42.9,35.1c-9.8,21.5-14.6,39-14.6,52.7c0.7,11.1,3.2,19.8,7.8,26.3
		c-3.2,8.5-24.7,22.8-64.4,42.9c-32.5,16.3-56.2,27-71.2,32.2c36.4,3.2,63.4,3.2,81,0c21.5-3.9,40-12.7,55.6-26.3
		c14.3-18.2,24.1-32.2,29.3-41.9c28.6,9.8,50.1,14.6,64.4,14.6h7.8C2598.9,536,2606.1,526.9,2608.7,521.1L2608.7,521.1z" stroke="#000000" stroke-miterlimit="10"/>
	<path d="M2563.8,489.8c-15,2-33.5-1.6-55.6-10.7
		c5.9-11.7,10.7-19.8,14.6-24.4C2538.5,472.9,2552.1,484.6,2563.8,489.8L2563.8,489.8z" fill="#FFFFFF" stroke="#000000" stroke-miterlimit="10"/>
	<path d="M2453.6,78.3c5.2-13,7.8-23.4,7.8-31.2c0-7.1-2.6-12.4-7.8-15.6
		c-4.6-3.2-9.4-4.9-14.6-4.9c-17.6,0-33.5,13.7-47.8,41c-5.2,2-10.7,1.6-16.6-1c-5.2-2-9.4-2.6-12.7-2c-9.8,2-18.5,8.8-26.3,20.5
		c-7.1,10.4-11.1,18.9-11.7,25.4l14.6-10.7c9.1-5.9,17.6-8.8,25.4-8.8c0.7,0,3.6,2,8.8,5.9c5.2,3.2,11.4,5.2,18.5,5.9l7.8,1
		c16.3,0,30.2-4.6,41.9-13.7C2450,82.8,2454.3,78.9,2453.6,78.3L2453.6,78.3z" stroke="#000000" stroke-miterlimit="10"/>
	<path d="M2406.8,72.4c7.8,0.7,15.3-0.7,22.4-3.9
		c7.1-2.6,10.7-5.9,10.7-9.8s-3.2-5.9-9.8-5.9S2415.9,59.4,2406.8,72.4L2406.8,72.4z" fill="#FFFFFF" stroke="#000000" stroke-miterlimit="10"/>
	<path d="M4973.8,107.5c-13-14.3-33.8-21.1-62.4-20.5c-17.6,0-30.9,5.2-40,15.6
		c-5.2,5.2-9.4,13.3-12.7,24.4c3.9,0,8.1-1,12.7-2.9c3.9-2,6.8-3.2,8.8-3.9c8.5-1.3,18.2-1,29.3,1c11.1,1.3,16.9,2.6,17.6,3.9
		c0,3.2-7.1,9.1-21.5,17.6c-14.3,7.8-21.5,12.7-21.5,14.6c15.6,0.7,27.6-0.3,36.1-2.9C4944.2,147.2,4962.1,131.6,4973.8,107.5
		L4973.8,107.5z" stroke="#000000" stroke-miterlimit="10"/>
	<path d="M5176.7,549.3c-22.1,11.1-61.8,26-119,44.9l-26.3,32.2
		c55.3-13.7,97.9-29.6,127.8-47.8C5170.2,566.2,5176,556.5,5176.7,549.3L5176.7,549.3z" stroke="#000000" stroke-miterlimit="10"/>
	<polygon points="5085,480.1 5061.6,517.2 5099.6,543.5 5124,507.4 	" stroke="#000000" stroke-miterlimit="10"/>
</g>
</svg>
