<?xml version="1.0" encoding="utf-8"?><!-- Generator: Adobe Illustrator 21.0.2, SVG Export Plug-In . SVG Version: 6.00 Build 0)  -->
<svg enable-background="new 0 0 512 512" id="Слой_1" version="1.1"  viewBox="0 0 512 512" x="0px"
	 xmlns="http://www.w3.org/2000/svg" y="0px" xml:space="preserve">
<g>
	
		<path clip-rule="evenodd" d="
		M256,0c141.4,0,256,114.6,256,256c0,141.4-114.6,256-256,256C114.6,512,0,397.4,0,256C0,114.6,114.6,0,256,0L256,0z" fill="#336699" fill-rule="evenodd" stroke="#013766" stroke-miterlimit="22.9256" stroke-width="0.216"/>
	<path d="M235.5,323.7c0,3-0.4,5.7-1.2,8.1c-0.8,2.4-2,4.4-3.5,6l7.7,8.2l-4.6,3.9l-7.9-8.6
		c-1.2,0.5-2.4,0.9-3.7,1.2c-1.3,0.3-2.6,0.4-4.1,0.4c-5.2,0-9.3-1.7-12.4-5.1c-3.1-3.4-4.6-8.1-4.6-14.1v-14c0-6,1.5-10.7,4.6-14.2
		c3.1-3.4,7.2-5.1,12.4-5.1c5.2,0,9.4,1.7,12.6,5.1c3.1,3.4,4.7,8.1,4.7,14.2V323.7L235.5,323.7z M228.4,309.6
		c0-4.4-0.9-7.8-2.7-10.1c-1.8-2.3-4.3-3.4-7.5-3.4c-3.2,0-5.7,1.1-7.4,3.4c-1.7,2.3-2.6,5.7-2.6,10.1v14.1c0,4.5,0.9,7.9,2.6,10.2
		c1.7,2.3,4.2,3.5,7.3,3.5c3.3,0,5.8-1.1,7.6-3.4c1.8-2.3,2.6-5.7,2.6-10.2V309.6L228.4,309.6z" fill="#FFFFFF"/>
	<path d="M277.2,291.2v35.4c0,5.3-1.5,9.3-4.5,12.2c-3,2.8-7,4.2-11.9,4.2c-4.8,0-8.7-1.4-11.7-4.2
		c-3-2.8-4.5-6.9-4.5-12.2v-35.4h7v35.4c0,3.6,0.8,6.4,2.5,8.2c1.6,1.8,3.8,2.8,6.6,2.8c2.9,0,5.2-0.9,6.8-2.7
		c1.7-1.8,2.5-4.6,2.5-8.3v-35.4H277.2L277.2,291.2z" fill="#FFFFFF"/>
	<path d="M293.2,320.2v22h-7.1v-51H302c4.8,0,8.6,1.2,11.2,3.7c2.6,2.5,4,6.1,4,10.7c0,2.7-0.6,5-1.8,7
		c-1.2,2-3,3.5-5.3,4.7c2.5,0.9,4.4,2.3,5.5,4.4c1.1,2.1,1.7,4.6,1.7,7.7v4.5c0,1.6,0.2,3,0.5,4.4c0.3,1.4,0.9,2.4,1.6,3.2v0.8H312
		c-0.8-0.8-1.3-1.9-1.5-3.5c-0.2-1.6-0.3-3.2-0.3-4.9v-4.3c0-2.9-0.6-5.1-1.9-6.8c-1.3-1.7-3.1-2.5-5.3-2.5H293.2L293.2,320.2z
		 M293.2,314.8h8.4c2.9,0,5-0.8,6.4-2.3c1.4-1.6,2-3.8,2-6.6c0-2.9-0.7-5.2-2-6.8c-1.3-1.6-3.4-2.4-6.1-2.4h-8.8V314.8L293.2,314.8z
		" fill="#FFFFFF"/>
	<path d="M350.1,329.4h-16.3l-3.7,12.9h-7.2l15.7-51.1h6.9l15.6,51.1h-7.2L350.1,329.4L350.1,329.4z M335.4,323.7h13
		l-6.4-22.3h-0.2L335.4,323.7L335.4,323.7z" fill="#FFFFFF"/>
	<polygon fill="#FFFFFF" points="400.5,342.2 393.4,342.2 374,304.3 373.8,304.3 373.8,342.2 366.7,342.2 366.7,291.2 373.8,291.2 
		393.2,329 393.4,329 393.4,291.2 400.5,291.2 400.5,342.2 	"/>
	<path clip-rule="evenodd" d="M135.9,98.3c7.4-5.6,13.7-13,22.1-19.2c9.1-6.7,19.6-12.5,30.5-16
		l41.9,79c-34,21.6-85,61.3-98.8,97.3c-3.6,9.4-10.4,28-7.5,41.9c4.6-9.3,3.7-19.2,15.4-39.2c6-10.4,17.2-26.5,26.8-35.6
		c27.5-25.9,51.7-41.1,86.9-58.3c-0.8-5.4-48.6-94.5-54.5-102.4c-21.3,9-37.6,19.1-52.3,36.2c-2.3,2.7-3.5,4.4-5.6,7.2L135.9,98.3
		L135.9,98.3z" fill="#99FFFF" fill-rule="evenodd"/>
	<path clip-rule="evenodd" d="M228.2,89.2l8.8-3.3l39.3,72.8c-52.9,21.2-93,40-127.4,85.7
		c-7.5,9.9-18.5,28.3-21,37.6c22.8-22.9,24.5-37.4,67.9-66.9c36.3-24.7,64.9-33.8,105.1-47L246.4,68l-23.5,11.2L228.2,89.2
		L228.2,89.2z" fill="#25AAE2" fill-rule="evenodd"/>
	<path clip-rule="evenodd" d="M293.6,192.9c-34.9,11.3-48.9,8.6-91.7,32.2
		c-22.1,12.1-59.8,39.9-69.3,57.6c13.6-9.2,24.8-19.9,40.5-29.5c30.8-18.9,65.1-31,100.1-38.4c16.6-3.5,33.5-4.6,48.6-8.2
		l-18.1-33.7l-15.8,4.5L293.6,192.9L293.6,192.9z" fill="#FFFFFF" fill-rule="evenodd"/>
	<path d="M146.4,397.2h-16.3l-3.7,12.9h-7.2l15.7-51.1h6.9l15.6,51.1h-7.2L146.4,397.2L146.4,397.2z M131.8,391.5h13
		l-6.4-22.3h-0.2L131.8,391.5L131.8,391.5z" fill="#FFFFFF"/>
	<path d="M192.9,394.5l0.1,0.2c0,5.1-1.4,9-4.1,11.8c-2.7,2.8-6.5,4.2-11.4,4.2c-5,0-9-1.7-12-5
		c-3-3.4-4.5-8.1-4.5-14.1v-14.1c0-6,1.5-10.7,4.4-14.1c3-3.4,6.9-5.1,11.8-5.1c5,0,8.8,1.4,11.5,4.1c2.7,2.7,4.1,6.7,4.1,12
		l-0.1,0.2h-6.7c-0.1-3.7-0.8-6.5-2.2-8.3c-1.4-1.8-3.6-2.6-6.6-2.6c-2.9,0-5.2,1.2-6.8,3.5c-1.6,2.4-2.4,5.7-2.4,10.1v14.3
		c0,4.4,0.8,7.9,2.5,10.2c1.7,2.4,4,3.5,7,3.5c2.9,0,5.1-0.9,6.5-2.6c1.4-1.7,2.1-4.5,2.1-8.3H192.9L192.9,394.5z" fill="#FFFFFF"/>
	<path d="M223.9,397.2h-16.3l-3.7,12.9h-7.2l15.7-51.1h6.9l15.6,51.1h-7.2L223.9,397.2L223.9,397.2z M209.3,391.5h13
		l-6.4-22.3h-0.2L209.3,391.5L209.3,391.5z" fill="#FFFFFF"/>
	<path d="M240.5,410.1V359h14c5.4,0,9.8,2,13.3,6.1c3.4,4.1,5.1,9.3,5.1,15.8v7.3c0,6.4-1.7,11.7-5.1,15.8
		c-3.4,4.1-7.9,6.1-13.3,6.1H240.5L240.5,410.1z M247.7,364.4v40.3h6.7c3.6,0,6.4-1.5,8.5-4.6c2.1-3.1,3.1-7,3.1-11.9v-7.3
		c0-4.8-1-8.8-3.1-11.8c-2.1-3.1-4.9-4.6-8.5-4.6H247.7L247.7,364.4z" fill="#FFFFFF"/>
	<polygon fill="#FFFFFF" points="307,386.3 288.1,386.3 288.1,404.7 310.1,404.7 310.1,410.1 281,410.1 281,359 309.8,359 
		309.8,364.4 288.1,364.4 288.1,380.9 307,380.9 307,386.3 	"/>
	<polygon fill="#FFFFFF" points="325.7,359 337.6,400.7 337.8,400.7 349.7,359 358.9,359 358.9,410.1 351.9,410.1 351.9,390.5 
		352.5,370.8 352.3,370.8 340,410.1 335.3,410.1 323.1,370.8 322.9,370.9 323.5,390.5 323.5,410.1 316.5,410.1 316.5,359 325.7,359 
			"/>
	<polygon fill="#FFFFFF" points="381.9,383.8 382.1,383.8 392.6,359 400.5,359 385.5,391.7 385.5,410.1 378.4,410.1 378.4,391.2 
		363.6,359 371.5,359 381.9,383.8 	"/>
</g>
</svg>
