<?xml version="1.0" encoding="utf-8"?><!-- Generator: Adobe Illustrator 21.0.2, SVG Export Plug-In . SVG Version: 6.00 Build 0)  -->
<svg style="enable-background:new 0 0 512 512;" id="Слой_1" version="1.1"  viewBox="0 0 512 512" x="0px"
	 xmlns="http://www.w3.org/2000/svg" y="0px" xml:space="preserve">
<style type="text/css">
	.st0{fill:#336699;stroke:#013766;stroke-width:0.5082;}
	.st1{fill:#FFFFFF;}
	.st2{fill:#99FFFF;}
	.st3{fill:#25AAE2;}
	.st4{fill:#C12F2F;stroke:#000000;stroke-miterlimit:10;}
	.st5{fill:#FCFCFC;}
	.st6{font-family:'Insaniburger-with-Cheese';}
	.st7{font-size:100px;}
</style>
<g id="Слой_x0020_1">
	<g id="_342092712">
		<path class="st0" d="M67.6,0h376.8C481.7,0,512,30.3,512,67.6v376.8c0,37.3-30.3,67.6-67.6,67.6H67.6C30.3,512,0,481.7,0,444.4
			V67.6C0,30.3,30.3,0,67.6,0z"/>
		<g>
			<path class="st1" d="M223.2,342c0,4.1,0,8.2-2,12.3c0,2-2,4.1-4.1,6.1l10.2,12.3l-6.1,4.1l-10.2-10.2c-2,0-4.1,0-6.1,2
				c0,0-2,0-4.1,0c-8.2,0-12.3-2-16.4-8.2c-4.1-4.1-6.1-10.2-6.1-18.4v-18.4c0-8.2,2-14.3,6.1-18.4c4.1-6.1,8.2-8.2,16.4-8.2
				c6.1,0,12.3,2,16.4,8.2c4.1,4.1,6.1,10.2,6.1,18.4V342z M215,323.6c0-6.1-2-10.2-4.1-14.3c-2-2-6.1-4.1-10.2-4.1
				c-4.1,0-8.2,2-10.2,4.1c-2,4.1-4.1,8.2-4.1,14.3V342c0,6.1,2,10.2,4.1,14.3c2,2,6.1,4.1,10.2,4.1c4.1,0,8.2-2,10.2-4.1
				c2-4.1,4.1-8.2,4.1-14.3V323.6z"/>
			<path class="st1" d="M280.6,299v47.1c0,6.1-2,12.3-6.1,16.4c-4.1,4.1-10.2,6.1-16.4,6.1c-6.1,0-12.3-2-16.4-6.1
				c-4.1-4.1-6.1-10.2-6.1-16.4V299h10.2v47.1c0,4.1,0,8.2,2,10.2c2,4.1,6.1,4.1,10.2,4.1c4.1,0,6.1,0,8.2-2c2-4.1,4.1-6.1,4.1-12.3
				V299H280.6z" id="_x31_"/>
			<path class="st1" d="M301.1,337.9v28.7h-10.2V299h22.5c6.1,0,12.3,2,14.3,4.1c4.1,4.1,6.1,8.2,6.1,14.3
				c0,4.1-2,8.2-2,10.2c-2,2-4.1,4.1-8.2,6.1c4.1,2,6.1,4.1,8.2,6.1c2,2,2,6.1,2,10.2v6.1c0,2,0,4.1,0,6.1c0,2,2,2,2,4.1l0,0h-10.2
				c0,0,0-2-2-4.1c0-2,0-4.1,0-6.1v-6.1c0-4.1,0-6.1-2-10.2c-2-2-4.1-2-8.2-2H301.1z M301.1,329.7h12.3c4.1,0,6.1,0,8.2-2
				s2-6.1,2-10.2c0-4.1,0-6.1-2-8.2s-4.1-4.1-8.2-4.1h-12.3V329.7z" id="_x32_"/>
			<path class="st1" d="M378.9,350.2h-22.5l-6.1,16.4H342l20.5-67.6h8.2l22.5,67.6H383L378.9,350.2z M358.4,342h16.4
				l-8.2-30.7l0,0L358.4,342z" id="_x33_"/>
			<polygon class="st1" id="_x34_" points="446.5,366.6 436.2,366.6 409.6,315.4 409.6,315.4 409.6,366.6 399.4,366.6 399.4,299
				409.6,299 436.2,350.2 436.2,350.2 436.2,299 446.5,299 			"/>
			<g>
				<path class="st2" d="M79.9,96.3c8.2-6.1,16.4-14.3,24.6-20.5c10.2-8.2,22.5-14.3,32.8-18.4l47.1,88.1
					c-36.9,22.5-94.2,65.5-108.5,104.4c-4.1,10.2-10.2,30.7-8.2,47.1c6.1-10.2,4.1-20.5,16.4-43c6.1-12.3,18.4-28.7,30.7-38.9
					c28.7-28.7,55.3-45.1,94.2-63.5c-2-6.1-53.2-104.4-59.4-112.6c-24.6,10.2-41,20.5-57.3,41c-2,2-4.1,4.1-6.1,6.1L79.9,96.3z"/>
				<path class="st3" d="M182.3,86l8.2-2l43,77.8c-57.3,24.6-100.4,45.1-139.3,94.2c-8.2,10.2-20.5,30.7-22.5,41
					c24.6-24.6,26.6-41,73.7-73.7c41-26.6,71.7-36.9,114.7-51.2L200.7,63.5l-24.6,12.3L182.3,86z"/>
				<path class="st1" d="M251.9,200.7c-36.9,12.3-53.2,8.2-98.3,34.8c-24.6,12.3-65.5,43-75.8,61.4c14.3-8.2,26.6-20.5,43-30.7
					c34.8-20.5,71.7-34.8,110.6-43c16.4-4.1,34.8-4.1,51.2-8.2l-18.4-36.9l-18.4,4.1L251.9,200.7z"/>
			</g>
			<path class="st1" d="M104.4,442.4H81.9l-6.1,16.4h-8.2l20.5-67.6h10.2l20.5,67.6h-10.2L104.4,442.4z M84,434.2h18.4l-10.2-30.7
				l0,0L84,434.2z"/>
			<path class="st1" d="M165.9,438.3L165.9,438.3c0,6.1-2,12.3-4.1,16.4c-4.1,4.1-10.2,6.1-16.4,6.1s-12.3-2-16.4-8.2
				c-4.1-4.1-6.1-10.2-6.1-18.4v-18.4c0-8.2,2-14.3,6.1-20.5c4.1-4.1,10.2-6.1,16.4-6.1s12.3,2,14.3,6.1c4.1,4.1,6.1,8.2,6.1,16.4
				l0,0h-8.2c0-6.1-2-8.2-4.1-12.3c-2-2-4.1-2-8.2-2c-4.1,0-8.2,0-10.2,4.1c-2,4.1-2,8.2-2,14.3v18.4c0,6.1,0,10.2,2,14.3
				c4.1,2,6.1,4.1,10.2,4.1c4.1,0,6.1,0,8.2-4.1c2-2,4.1-6.1,4.1-10.2H165.9z" id="_x31__1_"/>
			<path class="st1" d="M208.9,442.4h-22.5l-6.1,16.4H172l20.5-67.6h8.2l22.5,67.6H213L208.9,442.4z M188.4,434.2
				h16.4l-8.2-30.7l0,0L188.4,434.2z" id="_x32__1_"/>
			<path class="st1" d="M229.4,458.8v-67.6h20.5c6.1,0,12.3,2,16.4,8.2c6.1,4.1,8.2,12.3,8.2,20.5v10.2
				c0,8.2-2,14.3-8.2,20.5c-4.1,6.1-10.2,8.2-16.4,8.2H229.4z M239.6,397.3v55.3h10.2c4.1,0,8.2-2,10.2-6.1s4.1-10.2,4.1-16.4v-10.2
				c0-6.1-2-12.3-4.1-16.4s-6.1-6.1-10.2-6.1H239.6z" id="_x33__1_"/>
			<polygon class="st1" id="_x34__1_" points="319.5,428 294.9,428 294.9,452.6 323.6,452.6 323.6,458.8 284.7,458.8 284.7,391.2
				323.6,391.2 323.6,397.3 294.9,397.3 294.9,419.8 319.5,419.8 			"/>
			<polygon class="st1" id="_x35_" points="344.1,391.2 360.4,446.5 360.4,446.5 376.8,391.2 389.1,391.2 389.1,458.8 380.9,458.8
				380.9,432.1 380.9,405.5 380.9,405.5 364.5,458.8 358.4,458.8 342,405.5 342,405.5 342,432.1 342,458.8 331.8,458.8 331.8,391.2 
							"/>
			<polygon class="st1" id="_x36_" points="419.8,423.9 421.9,423.9 434.2,391.2 446.5,391.2 426,434.2 426,458.8 415.7,458.8
				415.7,434.2 395.3,391.2 407.6,391.2 			"/>
		</g>
	</g>
</g>
<rect class="st4" height="158" width="512" y="354"/>
<circle class="st4" cx="422.9" cy="578" r="0"/>
<text class="st5 st6 st7" transform="matrix(1 0 0 1 197.632 470.752)">QA</text>
</svg>
