<?xml version="1.0" encoding="UTF-8"?><!DOCTYPE svg PUBLIC "-//W3C//DTD SVG 1.1//EN"
    "http://www.w3.org/Graphics/SVG/1.1/DTD/svg11.dtd"><!-- Creator: CorelDRAW X6 -->
<svg style="shape-rendering:geometricPrecision; text-rendering:geometricPrecision; image-rendering:optimizeQuality; fill-rule:evenodd; clip-rule:evenodd" height="512px" version="1.1" viewBox="0 0 250 250" width="512px" xmlns="http://www.w3.org/2000/svg"
xml:space="preserve">
 <defs>
  <style type="text/css">
   <![CDATA[
    .str0 {stroke:#013766;stroke-width:0.508228}
    .fil3 {fill:#25AAE2}
    .fil0 {fill:#336699}
    .fil2 {fill:#99FFFF}
    .fil4 {fill:white}
    .fil1 {fill:white;fill-rule:nonzero}
   ]]>
  </style>
 </defs>
 <g id="Слой_x0020_1">
  <metadata id="CorelCorpID_0Corel-Layer"/>
  <g id="_342092712">
   <rect class="fil0 str0" height="250" rx="33" ry="33" width="250"/>
   <g>
    <path class="fil1" d="M109 167c0,2 0,4 -1,6 0,1 -1,2 -2,3l5 6 -3 2 -5 -5c-1,0 -2,0 -3,1 0,0 -1,0 -2,0 -4,0 -6,-1 -8,-4 -2,-2 -3,-5 -3,-9l0 -9c0,-4 1,-7 3,-9 2,-3 4,-4 8,-4 3,0 6,1 8,4 2,2 3,5 3,9l0 9zm-4 -9c0,-3 -1,-5 -2,-7 -1,-1 -3,-2 -5,-2 -2,0 -4,1 -5,2 -1,2 -2,4 -2,7l0 9c0,3 1,5 2,7 1,1 3,2 5,2 2,0 4,-1 5,-2 1,-2 2,-4 2,-7l0 -9z"/>
    <path class="fil1" d="M137 146l0 23c0,3 -1,6 -3,8 -2,2 -5,3 -8,3 -3,0 -6,-1 -8,-3 -2,-2 -3,-5 -3,-8l0 -23 5 0 0 23c0,2 0,4 1,5 1,2 3,2 5,2 2,0 3,0 4,-1 1,-2 2,-3 2,-6l0 -23 5 0z" id="1"/>
    <path class="fil1" d="M147 165l0 14 -5 0 0 -33 11 0c3,0 6,1 7,2 2,2 3,4 3,7 0,2 -1,4 -1,5 -1,1 -2,2 -4,3 2,1 3,2 4,3 1,1 1,3 1,5l0 3c0,1 0,2 0,3 0,1 1,1 1,2l0 0 -5 0c0,0 0,-1 -1,-2 0,-1 0,-2 0,-3l0 -3c0,-2 0,-3 -1,-5 -1,-1 -2,-1 -4,-1l-6 0zm0 -4l6 0c2,0 3,0 4,-1 1,-1 1,-3 1,-5 0,-2 0,-3 -1,-4 -1,-1 -2,-2 -4,-2l-6 0 0 12z" id="2"/>
    <path class="fil1" d="M185 171l-11 0 -3 8 -4 0 10 -33 4 0 11 33 -5 0 -2 -8zm-10 -4l8 0 -4 -15 0 0 -4 15z" id="3"/>
    <polygon class="fil1" id="4" points="218,179 213,179 200,154 200,154 200,179 195,179 195,146 200,146 213,171 213,171 213,146 218,146 "/>
    <g>
     <path class="fil2" d="M39 47c4,-3 8,-7 12,-10 5,-4 11,-7 16,-9l23 43c-18,11 -46,32 -53,51 -2,5 -5,15 -4,23 3,-5 2,-10 8,-21 3,-6 9,-14 15,-19 14,-14 27,-22 46,-31 -1,-3 -26,-51 -29,-55 -12,5 -20,10 -28,20 -1,1 -2,2 -3,3l-3 5z"/>
     <path class="fil3" d="M89 42l4 -1 21 38c-28,12 -49,22 -68,46 -4,5 -10,15 -11,20 12,-12 13,-20 36,-36 20,-13 35,-18 56,-25l-29 -53 -12 6 3 5z"/>
     <path class="fil4" d="M123 98c-18,6 -26,4 -48,17 -12,6 -32,21 -37,30 7,-4 13,-10 21,-15 17,-10 35,-17 54,-21 8,-2 17,-2 25,-4l-9 -18 -9 2 3 9z"/>
    </g>
    <path class="fil1" d="M51 216l-11 0 -3 8 -4 0 10 -33 5 0 10 33 -5 0 -2 -8zm-10 -4l9 0 -5 -15 0 0 -4 15z"/>
    <path class="fil1" d="M81 214l0 0c0,3 -1,6 -2,8 -2,2 -5,3 -8,3 -3,0 -6,-1 -8,-4 -2,-2 -3,-5 -3,-9l0 -9c0,-4 1,-7 3,-10 2,-2 5,-3 8,-3 3,0 6,1 7,3 2,2 3,4 3,8l0 0 -4 0c0,-3 -1,-4 -2,-6 -1,-1 -2,-1 -4,-1 -2,0 -4,0 -5,2 -1,2 -1,4 -1,7l0 9c0,3 0,5 1,7 2,1 3,2 5,2 2,0 3,0 4,-2 1,-1 2,-3 2,-5l4 0z" id="1"/>
    <path class="fil1" d="M102 216l-11 0 -3 8 -4 0 10 -33 4 0 11 33 -5 0 -2 -8zm-10 -4l8 0 -4 -15 0 0 -4 15z" id="2"/>
    <path class="fil1" d="M112 224l0 -33 10 0c3,0 6,1 8,4 3,2 4,6 4,10l0 5c0,4 -1,7 -4,10 -2,3 -5,4 -8,4l-10 0zm5 -30l0 27 5 0c2,0 4,-1 5,-3 1,-2 2,-5 2,-8l0 -5c0,-3 -1,-6 -2,-8 -1,-2 -3,-3 -5,-3l-5 0z" id="3"/>
    <polygon class="fil1" id="4" points="156,209 144,209 144,221 158,221 158,224 139,224 139,191 158,191 158,194 144,194 144,205 156,205 "/>
    <polygon class="fil1" id="5" points="168,191 176,218 176,218 184,191 190,191 190,224 186,224 186,211 186,198 186,198 178,224 175,224 167,198 167,198 167,211 167,224 162,224 162,191 "/>
    <polygon class="fil1" id="6" points="205,207 206,207 212,191 218,191 208,212 208,224 203,224 203,212 193,191 199,191 "/>
   </g>
  </g>
 </g>
</svg>
