<?xml version="1.0" encoding="utf-8"?><!-- Generator: Adobe Illustrator 21.0.2, SVG Export Plug-In . SVG Version: 6.00 Build 0)  -->
<svg enable-background="new 0 0 1000 1000" id="Слой_1" version="1.1"  viewBox="0 0 1000 1000" x="0px"
	 xmlns="http://www.w3.org/2000/svg" y="0px" xml:space="preserve">
<path clip-rule="evenodd" d="M138.9,221.5c31.4-23.6,57.6-54.9,93.3-81.1
	c38.4-28.2,82.8-52.7,128.6-67.4l176.9,333.5C393.9,498,178.8,665.6,120.5,817.3C105.3,856.9,76.7,935.4,89,994.4
	c19.5-39.4,15.7-80.9,65-165.4c25.5-43.7,72.5-112,113.3-150.4c116-109.3,218.3-173.6,367-246.3C631,409.6,429,33.2,404,0
	C314,37.9,245,80.7,183,153c-9.7,11.3-14.9,18.6-23.6,30.6L138.9,221.5L138.9,221.5z" fill="#99FFFF" fill-rule="evenodd"/>
<path clip-rule="evenodd" d="M528.8,183.2l37.3-13.9l165.8,307.5
	c-223.4,89.4-392.8,168.7-538.2,361.9c-31.5,41.8-78,119.4-88.5,158.7c96.2-96.9,103.5-157.9,286.6-282.6
	c153.4-104.5,274.2-142.6,444-198.3L605.5,93.7l-99.3,47.1L528.8,183.2L528.8,183.2z" fill="#25AAE2" fill-rule="evenodd"/>
<path clip-rule="evenodd" d="M804.9,621.1c-147.4,47.8-206.4,36.4-387.4,135.8
	c-93.3,51.3-252.4,168.6-292.8,243.1c57.5-38.9,104.7-83.9,171.2-124.6c130-79.6,274.7-130.8,422.5-162.3
	c70-14.9,141.3-19.2,205.4-34.5l-76.3-142.4L780.8,555L804.9,621.1L804.9,621.1z" fill="#FFFFFF" fill-rule="evenodd"/>
</svg>
